<?xml version="1.0" encoding="UTF-8"?>
<svg fill="#27AAE1" width="100pt" height="100pt" version="1.1" viewBox="0 0 100 100" xmlns="http://www.w3.org/2000/svg">
 <path d="m78.125 45.832c-1.25 0-2.5 0.20703-3.75 0.83203 0.41797-0.83203 0.625-1.875 0.625-2.918 0-4.582-3.75-8.332-8.332-8.332-1.875 0-3.332 0.625-4.793 1.457-2.082-8.125-9.375-13.957-18.125-13.957-10.418 0-18.75 8.332-18.75 18.75 0 0.83203 0 1.668 0.20703 2.293-0.83203-0.20703-1.457-0.20703-2.2891-0.20703-5.832 0-10.418 4.582-10.418 10.418 0 5.832 4.582 10.418 10.418 10.418h55.207c5.207 0 9.375-4.168 9.375-9.375 0-5.2109-4.168-9.3789-9.375-9.3789z"/>
</svg>
